{"title":"One Night Stand {2016} 720p WebHD Rip x264 5.1 AC3 ESubs {Team D","uid":15259247,"size":2475948856,"categoryP":"video","categoryS":"hd___movies","magnet":"?xt=urn:btih:da100428f00f97a1e69b24cf897a0384a3da12fd&amp;dn=One+Night+Stand+%7B2016%7D+720p+WebHD+Rip+x264+5.1+AC3+ESubs+%7BTeam+D&amp;tr=udp%3A%2F%2Ftracker.leechers-paradise.org%3A6969&amp;tr=udp%3A%2F%2Fzer0day.ch%3A1337&amp;tr=udp%3A%2F%2Fopen.demonii.com%3A1337&amp;tr=udp%3A%2F%2Ftracker.coppersurfer.tk%3A6969&amp;tr=udp%3A%2F%2Fexodus.desync.com%3A6969","seeders":12,"leechers":1,"uploader":"makintos13","files":2,"time":1468167154,"description":"One Night Stand {2016} 720p WebHD Rip x264 5.1 AC3 ESubs {Team DUS} - jnmjy\r\n\r\nScreens:\r\n \nhttps://imgmak.com/TjV\r\n \nhttps://imgmak.com/Tje\r\n \nhttps://imgmak.com/Tjg\r\n \nhttps://imgmak.com/Tjo\r\n \nhttps://imgmak.com/TjN\r\n \nhttps://imgmak.com/TjQ\r\n \nhttps://imgmak.com/TjS\r\n \nhttps://imgmak.com/TjZ\r\n \nhttps://imgmak.com/Tjc\r\n \nhttps://imgmak.com/Tjn\r\n \nhttps://imgmak.com/Tjr\r\n \nhttps://imgmak.com/TjB\r\n \nhttps://imgmak.com/TjI\r\n\r\nYear.............: 2016\r\nSource: 1080p @ DDR\r\nRipper...........: jnmjy\r\n\r\nGeneral\r\nFormat                                   : Matroska\r\nFormat version                           : Version 2\r\nFile size                                : 2.31 GiB\r\nDuration                                 : 1h 37mn\r\nOverall bit rate                         : 3 394 Kbps\r\nEncoded date                             : UTC 2016-07-10 02:07:49\r\nWriting application                      : mkvmerge v8.5.2 ('Crosses') 32bit\r\nWriting library                          : libebml v1.3.3 + libmatroska v1.4.4\r\nDURATION                                 : 01:37:16.556000000\r\nNUMBER_OF_FRAMES                         : 167573\r\n\r\nVideo\r\nID                                       : 1\r\nFormat                                   : AVC\r\nFormat/Info                              : Advanced Video Codec\r\nFormat profile                           :   \r\nFormat settings, CABAC                   : Yes\r\nFormat settings, ReFrames                : 4 frames\r\nCodec ID                                 : V_MPEG4/ISO/AVC\r\nDuration                                 : 1h 37mn\r\nBit rate                                 : 3 000 Kbps\r\nWidth                                    : 1 280 pixels\r\nHeight                                   : 536 pixels\r\nDisplay aspect ratio                     : 2.40:1\r\nFrame rate mode                          : Constant\r\nFrame rate                               : 24.000 fps\r\nColor space                              : YUV\r\nChroma subsampling                       : 4:2:0\r\nBit depth                                : 8 bits\r\nScan type                                : Progressive\r\nBits/(Pixel*Frame)                       : 0.182\r\nStream size                              : 2.00 GiB (87%)\r\nWriting library                          : x264 core 148 r2638 7599210\r\nDefault                                  : Yes\r\nForced                                   : No\r\n\r\nAudio\r\nID                                       : 2\r\nFormat                                   : AC-3\r\nFormat/Info                              : Audio Coding 3\r\nMode extension                           : CM (complete main)\r\nFormat settings, Endianness              : Big\r\nCodec ID                                 : A_AC3\r\nDuration                                 : 1h 37mn\r\nBit rate mode                            : Constant\r\nBit rate                                 : 384 Kbps\r\nChannel(s)                               : 6 channels\r\nChannel positions                        : Front: L C R, Side: L R, LFE\r\nSampling rate                            : 44.1 KHz\r\nCompression mode                         : Lossy\r\nDelay relative to video                  : 20ms\r\nStream size                              : 267 MiB (11%)\r\nLanguage                                 : Hndi\r\nDefault                                  : Yes\r\nForced                                   : No","torrent":{"xt":"urn:btih:da100428f00f97a1e69b24cf897a0384a3da12fd","amp;dn":"One+Night+Stand+%7B2016%7D+720p+WebHD+Rip+x264+5.1+AC3+ESubs+%7BTeam+D","amp;tr":["udp%3A%2F%2Ftracker.leechers-paradise.org%3A6969","udp%3A%2F%2Fzer0day.ch%3A1337","udp%3A%2F%2Fopen.demonii.com%3A1337","udp%3A%2F%2Ftracker.coppersurfer.tk%3A6969","udp%3A%2F%2Fexodus.desync.com%3A6969"],"infoHash":"da100428f00f97a1e69b24cf897a0384a3da12fd","infoHashBuffer":{"type":"Buffer","data":[218,16,4,40,240,15,151,161,230,155,36,207,137,122,3,132,163,218,18,253]},"announce":[],"urlList":[]}}